<svg width="125" height="48" viewBox="0 0 125 48" fill="none" xmlns="http://www.w3.org/2000/svg">
<g clip-path="url(#clip0_1762_4464)">
<path d="M99.0376 0.506596C96.2514 1.01319 95.6181 2.65963 95.6181 2.65963C94.8582 4.17942 96.2514 8.10554 99.0376 12.9182C99.7974 12.7916 104.61 12.1583 109.802 12.285C114.995 12.4116 117.908 13.0449 119.174 13.8047C120.441 14.5646 120.061 16.0844 119.934 16.591C120.947 14.9446 122.974 10.8918 123.48 8.48549C124.113 6.07916 123.607 4.93931 123.48 4.68602C122.974 3.29288 121.834 2.65963 121.581 2.53298C118.794 1.13984 114.235 0.633245 111.322 0.379947C109.802 0.126649 108.156 0 106.51 0C103.85 0 101.444 0.126649 99.0376 0.506596Z" fill="url(#paint0_linear_1762_4464)"/>
<path d="M125 9.49861C125.253 7.34558 124.747 5.82579 124.493 5.31919C124.114 4.5593 123.86 4.0527 123.354 3.54611C123.1 3.29281 122.847 3.03951 122.467 2.78621C122.087 2.53292 121.707 2.40627 121.707 2.40627C121.961 2.53292 123.1 3.16616 123.607 4.5593C123.734 4.8126 124.24 5.95244 123.607 8.35877C122.974 10.7651 120.947 14.8179 120.061 16.4643C119.808 16.8443 114.235 26.5962 111.576 26.5962C108.916 26.5962 103.09 18.744 101.697 16.7176C100.811 15.3245 99.9241 14.058 99.1642 12.7915C96.378 8.10547 94.9849 4.0527 95.7447 2.53292C95.7447 2.53292 96.378 1.01313 99.1642 0.379883C99.1642 0.379883 99.1642 0.379883 99.0375 0.379883C91.1855 1.51972 87.6394 3.92606 86.3729 5.19255C86.3729 5.19255 84.7265 6.71233 84.8531 8.99202C84.9798 12.0316 86.8795 16.3377 87.6394 17.9841C89.4124 21.5303 91.9453 25.2031 92.5786 26.2163C93.9717 28.116 96.378 31.0289 98.7843 33.3086C100.684 35.0817 103.217 37.2348 105.37 38.3746C106.636 39.0078 108.029 39.0078 108.156 39.0078C108.536 39.0078 110.309 38.8812 111.955 37.4881C113.982 35.715 115.882 32.1688 117.275 29.8891C119.428 26.3429 121.074 22.1635 121.961 19.8838C122.72 18.4907 124.493 13.2981 125 9.49861Z" fill="url(#paint1_linear_1762_4464)"/>
<path d="M7.34532 38.8814C7.47197 39.0081 8.86508 39.2614 10.7648 39.2614C11.6513 39.2614 12.7911 39.1347 13.9309 38.8814H14.0576V38.7548C18.8701 31.4091 20.5165 24.4434 21.1498 20.3907C21.4031 18.7442 21.5297 16.8445 21.5297 16.8445L16.4639 17.731C16.0839 20.3907 14.6908 28.2429 11.0181 34.5754L10.8914 34.8286L10.7648 34.5754C8.23184 30.2693 6.83873 25.8366 6.07886 22.5437C5.69892 20.8973 5.31898 18.7442 5.19233 17.731L0.126476 17.0978C-0.000169881 17.9843 0.37977 28.1163 7.34532 38.8814Z" fill="#004B2C"/>
<path d="M60.0301 29.7626C59.9034 29.636 58.0037 28.6228 57.4971 28.1162C57.3705 27.9895 57.3705 27.9895 57.3705 27.9895C57.3705 27.9895 57.3705 27.8629 57.4971 27.7362C58.0037 27.2296 59.6501 26.2165 59.7768 26.2165C59.9034 25.9632 60.0301 25.2033 60.0301 23.8101C60.0301 21.6571 59.6501 20.0106 58.5103 18.8708C57.3705 17.731 55.7241 17.2244 53.6977 17.2244H42.8062V39.2613H54.0777C56.104 39.2613 57.7504 38.7547 58.8903 37.4882C60.0301 36.2217 60.41 34.5753 60.41 32.4223C60.5367 30.9025 60.1567 30.0159 60.0301 29.7626ZM47.7454 21.5304H52.8112C53.951 21.5304 54.5843 21.6571 54.7109 21.9104C54.9642 22.037 55.2175 22.417 55.2175 23.6835C55.2175 24.8233 54.9642 25.2033 54.7109 25.4566C54.4576 25.7099 53.8244 25.8365 52.6846 25.8365H47.7454V21.5304ZM54.9642 34.1953C54.7109 34.4486 53.951 34.5753 52.8112 34.5753H47.6187V29.7626H52.8112C53.951 29.7626 54.7109 29.8893 54.9642 30.1426C55.2175 30.3959 55.4708 30.7758 55.4708 32.169C55.4708 33.5621 55.2175 34.0687 54.9642 34.1953Z" fill="#004B2C"/>
<path d="M32.421 39.2614C36.727 39.2614 39.5132 38.3749 39.5132 38.3749L40.0198 38.2483L39.3866 33.6889L38.6267 33.8155C38.6267 33.8155 38.5001 33.8155 38.1201 33.9422C37.2336 34.0688 35.3339 34.4488 33.3075 34.4488C32.0411 34.4488 31.0279 34.4488 30.3947 34.1955C29.8881 34.0688 29.5082 33.9422 29.2549 33.6889C28.8749 33.3089 28.6216 32.8023 28.3683 31.9158C28.2417 31.0293 28.115 29.7628 28.115 28.243C28.115 26.7232 28.115 25.71 28.2417 24.8234C28.3683 24.1902 28.495 23.6836 28.7483 23.3036C29.0016 22.7971 29.3815 22.5438 30.1414 22.2905C30.9013 22.0372 31.9144 22.0372 33.3075 22.0372C34.7007 22.0372 35.9671 22.1638 36.9803 22.2905C37.4869 22.4171 37.8668 22.4171 38.2468 22.4171C38.5001 22.5438 38.6267 22.5438 38.6267 22.5438L39.3866 22.6704L40.0198 17.9844L39.3866 17.8577C39.3866 17.8577 35.9671 16.9712 32.2944 16.9712C30.648 16.9712 29.2549 17.0978 27.9884 17.4778C26.2154 17.9844 24.6956 19.1242 23.9357 20.7707C23.0492 22.5438 22.7959 24.8234 22.7959 28.1163C22.7959 32.4224 23.4291 35.2087 24.9489 36.9818C25.7088 37.8683 26.8486 38.5016 27.9884 38.8815C29.3815 39.1348 30.7746 39.2614 32.421 39.2614Z" fill="#004B2C"/>
<path d="M64.2091 38.3749L63.7025 38.2483L64.2091 34.3221H64.3357L64.8423 34.4488C64.969 34.4488 65.9822 34.7021 67.2486 34.8287C68.6417 35.082 70.4148 35.2087 71.9346 35.2087C72.0612 35.2087 72.0612 35.2087 72.1878 35.2087C73.3277 35.2087 74.4675 35.2087 75.2274 34.8287C75.9872 34.4488 76.4938 34.0688 76.4938 32.6757C76.4938 31.1559 76.2405 30.776 75.734 30.5227C75.2274 30.2694 73.9609 30.2694 72.3145 30.1427C70.0348 30.0161 67.8819 30.0161 66.2354 29.1295C64.589 28.3696 63.4492 26.5965 63.4492 23.8102V23.6836C63.4492 21.2773 64.2091 19.3775 65.7289 18.3643C67.2486 17.3511 69.4016 16.9712 72.1878 16.9712C76.1139 16.9712 79.5334 17.7311 79.5334 17.7311L80.1666 17.8577L79.5334 21.7839H79.4067H78.5202C78.5202 21.7839 77.6337 21.6572 76.3672 21.4039C75.1007 21.2773 73.581 21.024 72.3145 21.024C72.1878 21.024 71.9346 21.024 71.8079 21.024H71.6813C70.5414 21.024 69.5283 21.024 68.7684 21.4039C68.0085 21.7839 67.6286 22.1638 67.6286 23.4303C67.6286 24.8234 68.0085 25.2034 68.6417 25.4567C69.275 25.71 70.5414 25.71 71.9346 25.8366C74.2142 25.9633 76.2405 25.9633 78.0136 26.7232C79.7866 27.4831 80.7998 29.2562 80.7998 32.1691V32.2957C80.7998 35.082 79.9133 36.9818 78.3935 37.995C76.7471 39.0081 74.7208 39.2614 72.1878 39.2614C67.8819 39.2614 64.2091 38.3749 64.2091 38.3749Z" fill="#004B2C"/>
<path d="M11.7781 43.4407L10.2584 48H8.99192L7.47217 43.4407H8.23205L9.49851 47.3668H9.62516L10.8916 43.4407H11.7781Z" fill="#004B2C"/>
<path d="M12.2847 43.4407H13.0446V44.0739H12.2847V43.4407ZM12.2847 44.7072H13.0446V48H12.2847V44.7072Z" fill="#004B2C"/>
<path d="M16.9708 47.8733C16.4643 48 15.9577 48.1266 15.4511 48.1266C14.1846 48.1266 13.8047 47.4934 13.8047 46.4802C13.8047 45.2137 14.4379 44.8337 15.4511 44.8337C16.4643 44.8337 17.0975 45.3403 17.0975 46.3535V46.7335H14.6912C14.6912 47.3667 14.9445 47.7467 15.4511 47.7467C15.831 47.7467 16.4643 47.62 16.8442 47.4934L16.9708 47.8733ZM16.211 46.1002C16.211 45.3403 15.9577 45.087 15.4511 45.087C14.9445 45.087 14.6912 45.3403 14.6912 46.1002H16.211Z" fill="#004B2C"/>
<path d="M18.8707 43.9472V44.7071H19.6305V45.2137H18.8707V46.8601C18.8707 47.3667 18.8707 47.4934 19.1239 47.4934C19.1239 47.4934 19.1239 47.4934 19.2506 47.4934C19.3772 47.4934 19.5039 47.4934 19.7572 47.3667L19.6305 47.8733C19.2506 48 19.1239 48 18.9973 48C18.2374 48 18.1108 47.62 18.1108 46.8601V45.087H17.4775V44.5805H18.1108V43.8206H18.8707V43.9472Z" fill="#004B2C"/>
<path d="M22.9229 47.8734C22.6696 47.8734 22.1631 48 21.7831 48C20.39 48 20.1367 47.4934 20.1367 46.3536C20.1367 45.2137 20.5167 44.5805 21.7831 44.7071C22.1631 44.7071 22.6696 44.8338 22.9229 44.8338V45.2137C22.7963 45.2137 22.0364 45.0871 21.7831 45.0871C21.0232 45.0871 20.8966 45.3404 20.8966 46.3536C20.8966 47.3668 21.0232 47.6201 21.7831 47.6201C22.0364 47.6201 22.543 47.4934 22.9229 47.4934V47.8734Z" fill="#004B2C"/>
<path d="M26.7225 46.227C26.7225 47.3668 26.3426 48.0001 25.0761 48.0001C23.8096 48.0001 23.4297 47.4935 23.4297 46.227C23.4297 45.0872 23.9363 44.5806 25.0761 44.5806C26.0893 44.7072 26.7225 45.0872 26.7225 46.227ZM25.0761 47.6201C25.836 47.6201 25.9626 47.2402 25.9626 46.3536C25.9626 45.4671 25.5827 45.2138 25.0761 45.2138C24.4429 45.2138 24.1896 45.4671 24.1896 46.3536C24.1896 47.2402 24.3162 47.6201 25.0761 47.6201Z" fill="#004B2C"/>
<path d="M27.4824 44.9606C27.989 44.7073 28.4956 44.7073 29.0022 44.7073C29.3821 44.7073 29.7621 44.8339 29.8887 44.9606C30.3953 44.8339 30.7752 44.7073 31.1552 44.7073C32.295 44.7073 32.6749 45.2139 32.6749 46.3537V48.0001H31.9151V46.3537C31.9151 45.4672 31.7884 45.2139 31.2818 45.2139C30.9019 45.2139 30.7752 45.2139 30.3953 45.3405C30.5219 45.5938 30.5219 45.9738 30.5219 46.3537V48.0001H29.7621V46.3537C29.7621 45.4672 29.6354 45.2139 29.1288 45.2139C28.8755 45.2139 28.6222 45.3405 28.3689 45.3405V48.1268H27.6091V44.9606H27.4824Z" fill="#004B2C"/>
<path d="M34.3209 43.4407V44.8338C34.4476 44.8338 34.8275 44.7072 35.0808 44.7072C36.2206 44.7072 36.6005 45.2138 36.6005 46.3536C36.6005 47.4934 36.2206 48.1267 34.7009 48.1267C34.3209 48.1267 34.0676 48.1267 33.561 48.1267V43.5673H34.3209V43.4407ZM34.3209 47.4934C34.4476 47.4934 34.5742 47.4934 34.7009 47.4934H34.8275C35.714 47.4934 35.8407 47.1135 35.8407 46.2269C35.8407 45.3404 35.714 45.0871 35.2074 45.0871C34.9541 45.0871 34.7009 45.2138 34.4476 45.2138V47.4934H34.3209Z" fill="#004B2C"/>
<path d="M37.4872 44.7072C38.1204 44.7072 38.5004 44.5806 38.8803 44.5806C39.7668 44.5806 40.1468 44.9605 40.1468 45.5938V47.6201C39.7668 47.7468 39.1336 47.8734 38.3737 47.8734C37.6138 47.8734 37.2339 47.4935 37.2339 46.8602C37.2339 46.3536 37.6138 45.9737 38.5004 45.847L39.3869 45.7204V45.4671C39.3869 45.0872 39.2602 44.9605 38.8803 44.9605C38.5004 44.9605 38.2471 44.9605 37.6138 45.0872L37.4872 44.7072ZM39.2602 46.3536L38.5004 46.4803C38.1204 46.4803 37.9938 46.7336 37.9938 46.9869C37.9938 47.2402 38.1204 47.4935 38.3737 47.4935C38.7536 47.4935 39.0069 47.3668 39.2602 47.3668V46.3536Z" fill="#004B2C"/>
<path d="M40.9067 44.9606C41.4133 44.7073 41.9199 44.7073 42.4265 44.7073C43.5663 44.7073 44.0729 45.2139 44.0729 46.3537V48.0001H43.313V46.3537C43.313 45.4672 43.0597 45.2139 42.5531 45.2139C42.2998 45.2139 42.0466 45.3405 41.7933 45.3405V48.1268H41.0334V44.9606H40.9067Z" fill="#004B2C"/>
<path d="M44.9595 48V43.4407H45.7194V45.847H46.0993L47.2391 44.7072H48.1256L46.6059 46.227L48.1256 48H47.2391L46.0993 46.6069H45.7194V48H44.9595Z" fill="#004B2C"/>
<path d="M51.165 47.3667C51.6716 47.4934 52.0516 47.4934 52.4315 47.4934H52.5582C53.0648 47.4934 53.4447 47.3667 53.4447 46.9868C53.4447 46.8601 53.4447 46.7335 53.1914 46.4802C53.0648 46.3535 52.4315 45.9736 52.0516 45.7203C51.4183 45.3403 51.165 45.0871 51.165 44.4538V44.3272C51.165 43.8206 51.6716 43.314 52.9381 43.314C53.5713 43.314 53.9513 43.314 54.3312 43.4406L54.2046 43.9472C53.698 43.8206 53.4447 43.8206 52.9381 43.8206C52.3049 43.8206 52.0516 44.0739 52.0516 44.3272C52.0516 44.3272 52.0516 44.3272 52.0516 44.4538C52.0516 44.7071 52.1782 44.8338 52.6848 45.0871C53.1914 45.3403 53.698 45.7203 53.9513 45.8469C54.3312 46.1002 54.4579 46.6068 54.4579 46.8601C54.4579 47.8733 53.4447 47.8733 52.8115 48C52.6848 48 52.6848 48 52.5582 48C52.0516 48 51.545 47.8733 51.165 47.8733V47.3667Z" fill="#004B2C"/>
<path d="M58.131 47.8733C57.6244 48 57.1178 48.1266 56.6112 48.1266C55.3448 48.1266 54.9648 47.4934 54.9648 46.4802C54.9648 45.2137 55.5981 44.8337 56.6112 44.8337C57.6244 44.8337 58.2576 45.3403 58.2576 46.3535V46.7335H55.8514C55.8514 47.3667 56.1047 47.7467 56.6112 47.7467C56.9912 47.7467 57.6244 47.62 58.0044 47.4934L58.131 47.8733ZM57.3711 46.1002C57.3711 45.3403 57.1178 45.087 56.6112 45.087C56.1047 45.087 55.8514 45.3403 55.8514 46.1002H57.3711Z" fill="#004B2C"/>
<path d="M61.5503 47.8734C61.2971 47.8734 60.7905 48 60.4105 48C59.0174 48 58.7642 47.4934 58.7642 46.3536C58.7642 45.2137 59.1441 44.5805 60.4105 44.7071C60.7905 44.7071 61.2971 44.8338 61.5503 44.8338V45.2137C61.4237 45.2137 60.6638 45.0871 60.4105 45.0871C59.6507 45.0871 59.524 45.3404 59.524 46.3536C59.524 47.3668 59.6507 47.6201 60.4105 47.6201C60.6638 47.6201 61.1704 47.4934 61.5503 47.4934V47.8734Z" fill="#004B2C"/>
<path d="M65.2231 47.7468C64.7165 48.0001 64.2099 48.0001 63.83 48.0001C62.6902 48.0001 62.1836 47.4935 62.1836 46.3536V44.7072H62.9435V46.3536C62.9435 47.2402 63.1968 47.4935 63.7033 47.4935C63.9566 47.4935 64.2099 47.3668 64.3366 47.3668V44.5806H65.0965V47.7468H65.2231Z" fill="#004B2C"/>
<path d="M65.9826 44.9606C66.4892 44.7073 66.9958 44.7073 67.5024 44.7073C67.629 44.7073 67.7557 44.7073 68.009 44.7073L67.8823 45.2139C67.629 45.2139 67.5024 45.2139 67.3757 45.2139C67.1224 45.2139 66.8691 45.3405 66.6158 45.3405V48.1268H65.856V44.9606H65.9826Z" fill="#004B2C"/>
<path d="M68.769 43.4407H69.529V44.0739H68.769V43.4407ZM68.769 44.7072H69.529V48H68.769V44.7072Z" fill="#004B2C"/>
<path d="M71.4287 43.9473V44.7072H72.1886V45.2138H71.4287V46.8602C71.4287 47.3668 71.4287 47.4934 71.682 47.4934C71.682 47.4934 71.682 47.4934 71.8087 47.4934C71.9353 47.4934 72.062 47.4934 72.3153 47.3668L72.1886 48C71.8087 48.1267 71.682 48.1267 71.5554 48.1267C70.7955 48.1267 70.6689 47.7467 70.6689 46.9868V45.2138H70.0356V44.7072H70.6689V43.9473H71.4287Z" fill="#004B2C"/>
<path d="M72.8218 43.4407H73.5817V44.0739H72.8218V43.4407ZM72.8218 44.7072H73.5817V48H72.8218V44.7072Z" fill="#004B2C"/>
<path d="M77.5075 47.8733C77.0009 48 76.4943 48.1266 75.9877 48.1266C74.7212 48.1266 74.3413 47.4934 74.3413 46.4802C74.3413 45.2137 74.9745 44.8337 75.8611 44.8337C76.8742 44.8337 77.5075 45.3403 77.5075 46.3535V46.7335H75.1012C75.1012 47.3667 75.3545 47.7467 75.8611 47.7467C76.241 47.7467 76.8742 47.62 77.2542 47.4934L77.5075 47.8733ZM76.7476 46.1002C76.7476 45.3403 76.4943 45.087 75.9877 45.087C75.4811 45.087 75.2278 45.3403 75.2278 46.1002H76.7476Z" fill="#004B2C"/>
<path d="M78.1408 47.4935C78.6474 47.6201 78.9007 47.6201 79.0273 47.6201H79.154C79.4073 47.6201 79.6606 47.4935 79.6606 47.2402C79.6606 47.1135 79.6606 46.9869 79.5339 46.8602C79.4073 46.7336 79.0273 46.4803 78.774 46.3536C78.3941 46.1003 78.1408 45.8471 78.1408 45.4671C78.1408 45.4671 78.1408 45.4671 78.1408 45.3405C78.1408 44.9605 78.5208 44.5806 79.4073 44.5806C79.7872 44.5806 79.9139 44.5806 80.5471 44.7072L80.4205 45.2138C80.0405 45.0872 79.7872 45.0872 79.5339 45.0872H79.4073C79.154 45.0872 79.0273 45.2138 79.0273 45.3405C79.0273 45.3405 79.0273 45.3405 79.0273 45.4671C79.0273 45.7204 79.154 45.7204 79.2806 45.9737C79.6606 46.227 80.0405 46.4803 80.0405 46.4803C80.4205 46.7336 80.4205 46.9869 80.4205 47.1135C80.4205 47.8734 79.6606 47.8734 79.154 48.0001H79.0273C78.774 48.0001 78.3941 48.0001 78.0142 47.8734L78.1408 47.4935Z" fill="#004B2C"/>
</g>
<defs>
<linearGradient id="paint0_linear_1762_4464" x1="95.447" y1="8.27254" x2="123.888" y2="8.1986" gradientUnits="userSpaceOnUse">
<stop stop-color="#004B2C"/>
<stop offset="0.9121" stop-color="#96BF21"/>
</linearGradient>
<linearGradient id="paint1_linear_1762_4464" x1="89.9304" y1="0.953534" x2="121.108" y2="26.9763" gradientUnits="userSpaceOnUse">
<stop offset="0.0989011" stop-color="#96BF21"/>
<stop offset="0.6185" stop-color="#287132"/>
<stop offset="1" stop-color="#004B2C"/>
</linearGradient>
<clipPath id="clip0_1762_4464">
<rect width="125" height="48" fill="white"/>
</clipPath>
</defs>
</svg>
